<svg width="100" height="100" viewBox="0 0 100 100" fill="none" xmlns="http://www.w3.org/2000/svg">
<g clip-path="url(#clip0)">
<path d="M99.824 52.9297C99.2383 63.4178 95.3713 73.2227 89.2771 80.9571C88.867 81.4846 82.6561 76.0936 82.2459 76.5625C81.3672 77.6172 86.3475 84.4725 85.4102 85.4102C77.0312 93.7891 65.4688 99.1209 52.9297 99.8241C51.9338 99.8241 50.9959 94.1407 50 94.1407C49.0041 94.1407 48.0662 99.8241 47.0703 99.8241C34.5313 99.1209 22.9686 93.7891 14.5898 85.4102C14.0039 84.8241 19.3359 78.379 18.75 77.7344C18.0469 76.9141 11.4258 81.8944 10.7227 80.9571C4.62871 73.2227 0.761719 63.4178 0.175781 52.9297C0.175781 51.9338 5.85918 50.9959 5.85918 50C5.85918 49.0042 0.175781 48.0663 0.175781 47.0704C0.761523 36.5823 4.62852 26.7774 10.7227 19.043C11.4844 18.0471 18.1055 22.9686 18.9256 22.0901C19.3945 21.5625 14.0627 15.1174 14.5898 14.5899C22.9686 6.21099 34.5313 0.87915 47.0703 0.176025C48.0664 0.176025 49.0043 5.85942 50 5.85942C50.9959 5.85942 51.9338 0.176025 52.9297 0.176025C65.4688 0.87915 77.0314 6.21099 85.4102 14.5899C85.9373 15.1174 80.6055 21.5625 81.0742 22.0901C81.8943 23.0274 88.5154 18.0471 89.2771 19.043C95.3711 26.7774 99.2381 36.5823 99.824 47.0704C99.824 48.0663 94.1406 49.0042 94.1406 50C94.1406 50.9959 99.824 51.9338 99.824 52.9297Z" fill="#828DF3"/>
<path d="M99.824 52.9297C99.2383 63.4178 95.3713 73.2227 89.2771 80.9571C88.867 81.4846 82.6561 76.0936 82.2459 76.5625C81.3672 77.6172 86.3475 84.4725 85.4102 85.4102C77.0312 93.7891 65.4687 99.1209 52.9297 99.8241C51.9338 99.8241 50.9959 94.1407 50 94.1407V5.85942C50.9959 5.85942 51.9338 0.176025 52.9297 0.176025C65.4687 0.87915 77.0314 6.21099 85.4102 14.5899C85.9373 15.1174 80.6055 21.5625 81.0742 22.0901C81.8943 23.0274 88.5154 18.0471 89.2771 19.043C95.3711 26.7774 99.2381 36.5823 99.824 47.0704C99.824 48.0663 94.1406 49.0042 94.1406 50C94.1406 50.9959 99.824 51.9338 99.824 52.9297Z" fill="#828DF3"/>
<path d="M99.8248 52.9297H76.7393C77.4424 63.7693 82.1297 73.6914 89.2781 80.957C88.0479 82.5393 86.7586 84.0041 85.4111 85.4102C77.0322 77.0312 71.583 65.5273 70.8801 52.9297H52.9305V99.824C51.9346 99.8826 50.9967 100 50.0008 100C49.0049 100 48.067 99.8826 47.0711 99.824V52.9297H29.1219C28.4187 65.5275 22.9695 77.0314 14.5908 85.4102C13.2434 84.0039 11.9541 82.5391 10.7238 80.957C17.8721 73.6914 22.5596 63.7693 23.2627 52.9297H0.176953C0.118359 51.9338 0.000976562 50.9959 0.000976562 50C0.000976562 49.0041 0.118359 48.0662 0.176953 47.0703H23.2625C22.5594 36.2307 17.8721 26.3086 10.7236 19.043C11.9539 17.4607 13.2432 15.9959 14.5906 14.5898C22.9695 22.9687 28.4187 34.4727 29.1217 47.0703H47.0713V0.175977C48.0672 0.117383 49.0051 0 50.0008 0C50.9967 0 51.9346 0.117383 52.9305 0.175977V47.0703H70.8799C71.583 34.4725 77.0322 22.9686 85.4109 14.5898C86.7584 15.9961 88.0477 17.4609 89.2779 19.043C82.1297 26.3086 77.4422 36.2307 76.7393 47.0703H99.8248C99.8834 48.0662 100.001 49.0041 100.001 50C100.001 50.9959 99.8834 51.9338 99.8248 52.9297Z" fill="#727CD6"/>
<path d="M99.824 52.9297H76.7385C77.4416 63.7693 82.1289 73.6914 89.2773 80.957C88.0471 82.5393 86.7578 84.0041 85.4104 85.4102C77.0314 77.0312 71.5822 65.5273 70.8793 52.9297H52.9297V99.824C51.9338 99.8826 50.9959 100 50 100V0C50.9959 0 51.9338 0.117383 52.9297 0.175977V47.0703H70.8791C71.5822 34.4725 77.0314 22.9686 85.4102 14.5898C86.7576 15.9961 88.0469 17.4609 89.2771 19.043C82.1289 26.3086 77.4414 36.2307 76.7385 47.0703H99.824C99.8826 48.0662 100 49.0041 100 50C100 50.9959 99.8826 51.9338 99.824 52.9297Z" fill="#727CD6"/>
</g>
<defs>
<clipPath id="clip0">
<rect width="100" height="100" fill="white"/>
</clipPath>
</defs>
</svg>
