<svg width="86" height="52" viewBox="0 0 86 52" fill="none" xmlns="http://www.w3.org/2000/svg">
<path d="M30.9798 23.064C33.5238 24.072 35.5878 25.608 37.1718 27.672C38.8038 29.736 39.6198 32.4 39.6198 35.664C39.6198 41.376 37.9878 45.36 34.7238 47.616C31.4598 49.872 27.5718 51 23.0598 51H5.13184C3.88384 51 2.82784 50.592 1.96384 49.776C1.14784 48.912 0.739844 47.856 0.739844 46.608V4.992C0.739844 3.744 1.14784 2.712 1.96384 1.896C2.82784 1.032 3.88384 0.599997 5.13184 0.599997H23.2758C32.3958 0.599997 36.9558 4.872 36.9558 13.416C36.9558 15.576 36.4278 17.496 35.3718 19.176C34.3638 20.808 32.8998 22.104 30.9798 23.064ZM27.5958 15C27.5958 13.032 27.0918 11.568 26.0838 10.608C25.1238 9.6 23.7558 9.096 21.9798 9.096H10.0998V20.328H22.1958C23.6358 20.328 24.8838 19.848 25.9398 18.888C27.0438 17.928 27.5958 16.632 27.5958 15ZM23.0598 42.72C25.3158 42.72 27.0678 42.12 28.3158 40.92C29.6118 39.72 30.2598 37.968 30.2598 35.664C30.2598 32.832 29.5158 30.984 28.0278 30.12C26.5398 29.256 24.7158 28.824 22.5558 28.824H10.0998V42.72H23.0598ZM83.1995 3.048C84.6875 3.816 85.4315 5.04 85.4315 6.72C85.4315 7.728 85.0715 8.712 84.3515 9.672C83.5835 10.68 82.5995 11.184 81.3995 11.184C80.5835 11.184 79.7675 10.968 78.9515 10.536C76.5995 9.432 74.0555 8.88 71.3195 8.88C67.9595 8.88 65.0315 9.6 62.5355 11.04C60.0395 12.432 58.1195 14.424 56.7755 17.016C55.4315 19.56 54.7595 22.488 54.7595 25.8C54.7595 31.464 56.2715 35.76 59.2955 38.688C62.3675 41.616 66.3755 43.08 71.3195 43.08C74.2475 43.08 76.7915 42.528 78.9515 41.424C79.8155 41.04 80.5835 40.848 81.2555 40.848C82.5035 40.848 83.5595 41.376 84.4235 42.432C85.1435 43.344 85.5035 44.328 85.5035 45.384C85.5035 46.152 85.3115 46.848 84.9275 47.472C84.5435 48.096 83.9915 48.576 83.2715 48.912C79.5275 50.784 75.5435 51.72 71.3195 51.72C66.6155 51.72 62.2955 50.736 58.3595 48.768C54.4235 46.752 51.2795 43.8 48.9275 39.912C46.5755 36.024 45.3995 31.32 45.3995 25.8C45.3995 20.904 46.5035 16.512 48.7115 12.624C50.9675 8.736 54.0635 5.712 57.9995 3.552C61.9355 1.344 66.3755 0.239997 71.3195 0.239997C75.5915 0.239997 79.5515 1.176 83.1995 3.048Z" fill="black"/>
</svg>
