<svg width="148" height="42" viewBox="0 0 148 42" fill="none" xmlns="http://www.w3.org/2000/svg">
<path d="M0 20C0 8.9543 8.9543 0 20 0H128C139.046 0 148 8.95431 148 20V22C148 33.0457 139.046 42 128 42H20C8.9543 42 0 33.0457 0 22V20Z" fill="#828DF3"/>
<path d="M34.8921 14.012C35.2641 14.204 35.4501 14.51 35.4501 14.93C35.4501 15.182 35.3601 15.428 35.1801 15.668C34.9881 15.92 34.7421 16.046 34.4421 16.046C34.2381 16.046 34.0341 15.992 33.8301 15.884C33.2421 15.608 32.6061 15.47 31.9221 15.47C31.0821 15.47 30.3501 15.65 29.7261 16.01C29.1021 16.358 28.6221 16.856 28.2861 17.504C27.9501 18.14 27.7821 18.872 27.7821 19.7C27.7821 21.116 28.1601 22.19 28.9161 22.922C29.6841 23.654 30.6861 24.02 31.9221 24.02C32.6541 24.02 33.2901 23.882 33.8301 23.606C34.0461 23.51 34.2381 23.462 34.4061 23.462C34.7181 23.462 34.9821 23.594 35.1981 23.858C35.3781 24.086 35.4681 24.332 35.4681 24.596C35.4681 24.788 35.4201 24.962 35.3241 25.118C35.2281 25.274 35.0901 25.394 34.9101 25.478C33.9741 25.946 32.9781 26.18 31.9221 26.18C30.7461 26.18 29.6661 25.934 28.6821 25.442C27.6981 24.938 26.9121 24.2 26.3241 23.228C25.7361 22.256 25.4421 21.08 25.4421 19.7C25.4421 18.476 25.7181 17.378 26.2701 16.406C26.8341 15.434 27.6081 14.678 28.5921 14.138C29.5761 13.586 30.6861 13.31 31.9221 13.31C32.9901 13.31 33.9801 13.544 34.8921 14.012ZM46.4293 21.194C46.4293 22.154 46.2133 23.018 45.7813 23.786C45.3493 24.542 44.7553 25.13 43.9993 25.55C43.2553 25.97 42.4333 26.18 41.5333 26.18C40.6213 26.18 39.7933 25.97 39.0493 25.55C38.3053 25.13 37.7173 24.542 37.2853 23.786C36.8533 23.018 36.6373 22.154 36.6373 21.194C36.6373 20.234 36.8533 19.376 37.2853 18.62C37.7173 17.852 38.3053 17.258 39.0493 16.838C39.7933 16.406 40.6213 16.19 41.5333 16.19C42.4333 16.19 43.2553 16.406 43.9993 16.838C44.7553 17.258 45.3493 17.852 45.7813 18.62C46.2133 19.376 46.4293 20.234 46.4293 21.194ZM44.2693 21.194C44.2693 20.606 44.1433 20.084 43.8913 19.628C43.6513 19.16 43.3213 18.8 42.9013 18.548C42.4933 18.296 42.0373 18.17 41.5333 18.17C41.0293 18.17 40.5673 18.296 40.1473 18.548C39.7393 18.8 39.4093 19.16 39.1573 19.628C38.9173 20.084 38.7973 20.606 38.7973 21.194C38.7973 21.782 38.9173 22.304 39.1573 22.76C39.4093 23.216 39.7393 23.57 40.1473 23.822C40.5673 24.074 41.0293 24.2 41.5333 24.2C42.0373 24.2 42.4933 24.074 42.9013 23.822C43.3213 23.57 43.6513 23.216 43.8913 22.76C44.1433 22.304 44.2693 21.782 44.2693 21.194ZM53.3819 16.19C54.6059 16.19 55.4519 16.556 55.9199 17.288C56.3879 18.008 56.6219 19.01 56.6219 20.294V24.902C56.6219 25.214 56.5199 25.478 56.3159 25.694C56.1119 25.898 55.8539 26 55.5419 26C55.2299 26 54.9719 25.898 54.7679 25.694C54.5639 25.478 54.4619 25.214 54.4619 24.902V20.294C54.4619 19.634 54.3239 19.118 54.0479 18.746C53.7719 18.362 53.2979 18.17 52.6259 18.17C51.9299 18.17 51.3839 18.374 50.9879 18.782C50.5919 19.178 50.3939 19.682 50.3939 20.294V24.902C50.3939 25.214 50.2919 25.478 50.0879 25.694C49.8839 25.898 49.6259 26 49.3139 26C49.0019 26 48.7439 25.898 48.5399 25.694C48.3359 25.478 48.2339 25.214 48.2339 24.902V17.468C48.2339 17.156 48.3359 16.898 48.5399 16.694C48.7439 16.478 49.0019 16.37 49.3139 16.37C49.6259 16.37 49.8839 16.478 50.0879 16.694C50.2919 16.898 50.3939 17.156 50.3939 17.468V17.774C50.7179 17.342 51.1379 16.97 51.6539 16.658C52.1819 16.346 52.7579 16.19 53.3819 16.19ZM63.6005 23.966C63.7685 23.966 63.9185 24.05 64.0505 24.218C64.1945 24.374 64.2665 24.584 64.2665 24.848C64.2665 25.172 64.0865 25.448 63.7265 25.676C63.3785 25.892 62.9825 26 62.5385 26C61.7945 26 61.1645 25.844 60.6485 25.532C60.1445 25.208 59.8925 24.53 59.8925 23.498V18.53H59.0645C58.7765 18.53 58.5365 18.434 58.3445 18.242C58.1525 18.05 58.0565 17.81 58.0565 17.522C58.0565 17.246 58.1525 17.018 58.3445 16.838C58.5365 16.646 58.7765 16.55 59.0645 16.55H59.8925V15.398C59.8925 15.086 59.9945 14.828 60.1985 14.624C60.4145 14.408 60.6785 14.3 60.9905 14.3C61.2905 14.3 61.5425 14.408 61.7465 14.624C61.9505 14.828 62.0525 15.086 62.0525 15.398V16.55H63.3305C63.6185 16.55 63.8585 16.646 64.0505 16.838C64.2425 17.03 64.3385 17.27 64.3385 17.558C64.3385 17.834 64.2425 18.068 64.0505 18.26C63.8585 18.44 63.6185 18.53 63.3305 18.53H62.0525V23.408C62.0525 23.66 62.1185 23.846 62.2505 23.966C62.3825 24.074 62.5625 24.128 62.7905 24.128C62.8865 24.128 63.0185 24.104 63.1865 24.056C63.3305 23.996 63.4685 23.966 63.6005 23.966ZM74.1158 16.19C74.4278 16.19 74.6858 16.292 74.8898 16.496C75.0938 16.7 75.1958 16.964 75.1958 17.288V24.902C75.1958 25.214 75.0938 25.478 74.8898 25.694C74.6858 25.898 74.4278 26 74.1158 26C73.8038 26 73.5458 25.898 73.3418 25.694C73.1498 25.49 73.0478 25.232 73.0358 24.92C72.7358 25.268 72.3278 25.568 71.8118 25.82C71.3078 26.06 70.7738 26.18 70.2098 26.18C69.3818 26.18 68.6318 25.97 67.9598 25.55C67.2878 25.118 66.7538 24.524 66.3578 23.768C65.9738 23.012 65.7818 22.154 65.7818 21.194C65.7818 20.234 65.9738 19.376 66.3578 18.62C66.7418 17.852 67.2638 17.258 67.9238 16.838C68.5958 16.406 69.3338 16.19 70.1378 16.19C70.7138 16.19 71.2538 16.298 71.7578 16.514C72.2618 16.718 72.6878 16.982 73.0358 17.306V17.288C73.0358 16.976 73.1378 16.718 73.3418 16.514C73.5458 16.298 73.8038 16.19 74.1158 16.19ZM70.4798 24.2C71.2598 24.2 71.8958 23.918 72.3878 23.354C72.8798 22.778 73.1258 22.058 73.1258 21.194C73.1258 20.33 72.8798 19.61 72.3878 19.034C71.8958 18.458 71.2598 18.17 70.4798 18.17C69.7118 18.17 69.0818 18.458 68.5898 19.034C68.0978 19.61 67.8518 20.33 67.8518 21.194C67.8518 22.058 68.0918 22.778 68.5718 23.354C69.0638 23.918 69.6998 24.2 70.4798 24.2ZM81.7306 16.19C82.7506 16.19 83.5726 16.352 84.1966 16.676C84.8206 16.988 85.1326 17.408 85.1326 17.936C85.1326 18.2 85.0546 18.434 84.8986 18.638C84.7426 18.83 84.5386 18.926 84.2866 18.926C84.0946 18.926 83.9386 18.902 83.8186 18.854C83.6986 18.794 83.5786 18.722 83.4586 18.638C83.3506 18.542 83.2426 18.464 83.1346 18.404C83.0146 18.344 82.8346 18.29 82.5946 18.242C82.3666 18.194 82.1806 18.17 82.0366 18.17C81.1366 18.17 80.4286 18.452 79.9126 19.016C79.4086 19.568 79.1566 20.294 79.1566 21.194C79.1566 22.058 79.4146 22.778 79.9306 23.354C80.4466 23.918 81.1066 24.2 81.9106 24.2C82.4986 24.2 82.9366 24.128 83.2246 23.984C83.2966 23.948 83.3926 23.888 83.5126 23.804C83.6446 23.708 83.7646 23.636 83.8726 23.588C83.9806 23.54 84.1126 23.516 84.2686 23.516C84.5686 23.516 84.8026 23.612 84.9706 23.804C85.1506 23.996 85.2406 24.242 85.2406 24.542C85.2406 24.83 85.0726 25.1 84.7366 25.352C84.4006 25.604 83.9566 25.808 83.4046 25.964C82.8526 26.108 82.2646 26.18 81.6406 26.18C80.7166 26.18 79.9006 25.964 79.1926 25.532C78.4966 25.1 77.9566 24.506 77.5726 23.75C77.1886 22.982 76.9966 22.13 76.9966 21.194C76.9966 20.222 77.1946 19.358 77.5906 18.602C77.9986 17.846 78.5626 17.258 79.2826 16.838C80.0026 16.406 80.8186 16.19 81.7306 16.19ZM91.4443 23.966C91.6123 23.966 91.7623 24.05 91.8943 24.218C92.0383 24.374 92.1103 24.584 92.1103 24.848C92.1103 25.172 91.9303 25.448 91.5703 25.676C91.2223 25.892 90.8263 26 90.3823 26C89.6383 26 89.0083 25.844 88.4923 25.532C87.9883 25.208 87.7363 24.53 87.7363 23.498V18.53H86.9083C86.6203 18.53 86.3803 18.434 86.1883 18.242C85.9963 18.05 85.9003 17.81 85.9003 17.522C85.9003 17.246 85.9963 17.018 86.1883 16.838C86.3803 16.646 86.6203 16.55 86.9083 16.55H87.7363V15.398C87.7363 15.086 87.8383 14.828 88.0423 14.624C88.2583 14.408 88.5223 14.3 88.8343 14.3C89.1343 14.3 89.3863 14.408 89.5903 14.624C89.7943 14.828 89.8963 15.086 89.8963 15.398V16.55H91.1743C91.4623 16.55 91.7023 16.646 91.8943 16.838C92.0863 17.03 92.1823 17.27 92.1823 17.558C92.1823 17.834 92.0863 18.068 91.8943 18.26C91.7023 18.44 91.4623 18.53 91.1743 18.53H89.8963V23.408C89.8963 23.66 89.9623 23.846 90.0943 23.966C90.2263 24.074 90.4063 24.128 90.6343 24.128C90.7303 24.128 90.8623 24.104 91.0303 24.056C91.1743 23.996 91.3123 23.966 91.4443 23.966ZM110.316 13.382C110.616 13.382 110.874 13.49 111.09 13.706C111.318 13.91 111.432 14.168 111.432 14.48V24.902C111.432 25.214 111.33 25.478 111.126 25.694C110.922 25.898 110.652 26 110.316 26C109.98 26 109.704 25.898 109.488 25.694C109.284 25.49 109.182 25.226 109.182 24.902V17.648L106.212 22.184C106.092 22.328 105.954 22.448 105.798 22.544C105.642 22.628 105.48 22.664 105.312 22.652C105.156 22.664 105 22.628 104.844 22.544C104.688 22.448 104.55 22.328 104.43 22.184L101.46 17.486V24.902C101.46 25.226 101.364 25.49 101.172 25.694C100.98 25.898 100.728 26 100.416 26C100.116 26 99.8705 25.898 99.6785 25.694C99.4865 25.478 99.3905 25.214 99.3905 24.902V14.48C99.3905 14.18 99.4985 13.922 99.7145 13.706C99.9425 13.49 100.212 13.382 100.524 13.382C100.704 13.382 100.884 13.43 101.064 13.526C101.244 13.61 101.382 13.724 101.478 13.868L105.402 19.898L109.434 13.868C109.53 13.724 109.656 13.61 109.812 13.526C109.98 13.43 110.148 13.382 110.316 13.382ZM122.598 20.96C122.586 21.248 122.472 21.482 122.256 21.662C122.04 21.842 121.788 21.932 121.5 21.932H115.56C115.704 22.64 116.034 23.198 116.55 23.606C117.066 24.002 117.648 24.2 118.296 24.2C118.788 24.2 119.172 24.158 119.448 24.074C119.724 23.978 119.94 23.882 120.096 23.786C120.264 23.678 120.378 23.606 120.438 23.57C120.654 23.462 120.858 23.408 121.05 23.408C121.302 23.408 121.518 23.498 121.698 23.678C121.878 23.858 121.968 24.068 121.968 24.308C121.968 24.632 121.8 24.926 121.464 25.19C121.128 25.466 120.678 25.7 120.114 25.892C119.55 26.084 118.98 26.18 118.404 26.18C117.396 26.18 116.514 25.97 115.758 25.55C115.014 25.13 114.438 24.554 114.03 23.822C113.622 23.078 113.418 22.244 113.418 21.32C113.418 20.288 113.634 19.382 114.066 18.602C114.498 17.822 115.068 17.228 115.776 16.82C116.484 16.4 117.24 16.19 118.044 16.19C118.836 16.19 119.58 16.406 120.276 16.838C120.984 17.27 121.548 17.852 121.968 18.584C122.388 19.316 122.598 20.108 122.598 20.96ZM118.044 18.17C116.652 18.17 115.83 18.824 115.578 20.132H120.294V20.006C120.246 19.502 120 19.07 119.556 18.71C119.112 18.35 118.608 18.17 118.044 18.17Z" fill="white"/>
</svg>
