<svg width="124" height="101" viewBox="0 0 124 101" fill="none" xmlns="http://www.w3.org/2000/svg">
<path d="M123.935 71.8219C123.935 67.3575 120.911 63.5871 116.721 62.1669V26.645L123.935 23.8175L62.3726 0.337891L0.809937 23.8175L62.3726 47.2974L109.507 29.3986V62.1669C105.317 63.5871 102.292 67.3575 102.292 71.8219C102.292 75.9091 104.832 79.4176 108.473 81.0756L102.479 98.1681L109.32 100.338L113.114 89.5188L116.908 100.338L123.748 98.1681L117.755 81.0756C121.396 79.4178 123.935 75.9094 123.935 71.8219Z" fill="#828DF3"/>
<path d="M62.3727 54.6874L29.908 42.2959V51.2485C29.908 61.0229 43.8647 68.3929 62.3727 68.3929C80.8807 68.3929 94.8373 61.0229 94.8373 51.2485V42.2959L62.3727 54.6874Z" fill="#828DF3"/>
</svg>
