<svg width="50" height="50" viewBox="0 0 50 50" fill="none" xmlns="http://www.w3.org/2000/svg">
<g clip-path="url(#clip0)">
<path d="M25 1.04175C11.1875 1.04175 0 12.0417 0 25.6084C0 36.4647 7.1625 45.6709 17.0938 48.9168C18.3438 49.148 18.8021 48.3876 18.8021 47.7355C18.8021 47.1522 18.7812 45.6063 18.7708 43.5584C11.8167 45.0397 10.35 40.2626 10.35 40.2626C9.2125 37.4272 7.56875 36.6688 7.56875 36.6688C5.30417 35.1459 7.74375 35.1772 7.74375 35.1772C10.2542 35.348 11.5729 37.7084 11.5729 37.7084C13.8021 41.4647 17.425 40.3792 18.8542 39.7522C19.0792 38.1626 19.7229 37.0813 20.4375 36.4668C14.8854 35.8522 9.05 33.7397 9.05 24.3272C9.05 21.6459 10.0187 19.4542 11.6229 17.7355C11.3417 17.1147 10.4979 14.6167 11.8417 11.2334C11.8417 11.2334 13.9354 10.5751 18.7167 13.7522C20.7167 13.2063 22.8417 12.9355 24.9667 12.923C27.0917 12.9355 29.2167 13.2063 31.2167 13.7522C35.9667 10.5751 38.0604 11.2334 38.0604 11.2334C39.4042 14.6167 38.5604 17.1147 38.3104 17.7355C39.9042 19.4542 40.8729 21.6459 40.8729 24.3272C40.8729 33.7647 35.0292 35.8418 29.4667 36.4459C30.3417 37.1834 31.1542 38.6897 31.1542 40.9918C31.1542 44.2793 31.1229 46.9209 31.1229 47.7188C31.1229 48.3626 31.5604 49.1313 32.8417 48.8855C42.8438 45.6605 50 36.448 50 25.6084C50 12.0417 38.8062 1.04175 25 1.04175Z" fill="#828DF3"/>
</g>
<defs>
<clipPath id="clip0">
<rect width="50" height="50" fill="white"/>
</clipPath>
</defs>
</svg>
