<svg width="210" height="30" viewBox="0 0 210 30" fill="none" xmlns="http://www.w3.org/2000/svg">
<path d="M70 15L0 15" stroke="white" stroke-width="3"/>
<path d="M210 15L140 15" stroke="white" stroke-width="3"/>
<path d="M120.127 5.33226C120.125 5.33226 120.123 5.33203 120.121 5.33203H112.152V4.45312C112.152 2.99927 110.969 1.81641 109.516 1.81641H102.484C101.031 1.81641 99.8477 2.99927 99.8477 4.45312V5.33203H91.8789C91.3896 5.33203 91 5.73303 91 6.21094V25.5469C91 27.0007 92.1829 28.1836 93.6367 28.1836H118.363C119.817 28.1836 121 27.0007 121 25.5469V6.22948C121 6.22833 121 6.22719 121 6.22604C120.966 5.6488 120.611 5.33546 120.127 5.33226ZM101.605 4.45312C101.605 3.96858 102 3.57422 102.484 3.57422H109.516C110 3.57422 110.395 3.96858 110.395 4.45312V5.33203H101.605V4.45312ZM118.902 7.08984L116.172 15.2779C116.052 15.6374 115.717 15.8789 115.339 15.8789H110.395V15C110.395 14.5145 110.001 14.1211 109.516 14.1211H102.484C101.999 14.1211 101.605 14.5145 101.605 15V15.8789H96.6614C96.2826 15.8789 95.9475 15.6374 95.8278 15.2779L93.0984 7.08984H118.902ZM108.637 15.8789V17.6367H103.363V15.8789H108.637ZM119.242 25.5469C119.242 26.0314 118.848 26.4258 118.363 26.4258H93.6367C93.1522 26.4258 92.7578 26.0314 92.7578 25.5469V11.627L94.1602 15.8338C94.5195 16.9123 95.5248 17.6367 96.6614 17.6367H101.605V18.5156C101.605 19.0011 101.999 19.3945 102.484 19.3945H109.516C110.001 19.3945 110.395 19.0011 110.395 18.5156V17.6367H115.339C116.475 17.6367 117.48 16.9123 117.84 15.8338L119.242 11.627V25.5469Z" fill="white"/>
</svg>
