<svg width="196" height="30" viewBox="0 0 196 30" fill="none" xmlns="http://www.w3.org/2000/svg">
<path d="M196 15H125" stroke="#828DF3" stroke-width="3"/>
<path d="M71 15H0" stroke="#828DF3" stroke-width="3"/>
<path d="M99 0C90.729 0 84 6.72909 84 15.0001C84 23.2711 90.729 30 99 30C107.271 30 114 23.2711 114 15.0001C114 6.72909 107.271 0 99 0ZM99 27.2727C92.2327 27.2727 86.7273 21.7673 86.7273 15.0001C86.7273 8.23291 92.2327 2.72727 99 2.72727C105.767 2.72727 111.273 8.23291 111.273 15.0001C111.273 21.7673 105.767 27.2727 99 27.2727Z" fill="#828DF3"/>
<path d="M98.9998 6.36362C97.9975 6.36362 97.182 7.17962 97.182 8.18262C97.182 9.18471 97.9975 9.99998 98.9998 9.99998C100.002 9.99998 100.818 9.18471 100.818 8.18262C100.818 7.17962 100.002 6.36362 98.9998 6.36362Z" fill="#828DF3"/>
<path d="M99 12.7273C98.2469 12.7273 97.6364 13.3378 97.6364 14.0909V22.2727C97.6364 23.0258 98.2469 23.6364 99 23.6364C99.7531 23.6364 100.364 23.0258 100.364 22.2727V14.0909C100.364 13.3378 99.7531 12.7273 99 12.7273Z" fill="#828DF3"/>
</svg>
