<svg width="80" height="80" viewBox="0 0 80 80" fill="none" xmlns="http://www.w3.org/2000/svg">
<circle cx="40" cy="40" r="40" fill="#828DF3"/>
<path d="M58.3333 43.6321H21.6667C20.7467 43.6321 20 42.8854 20 41.9654C20 41.0454 20.7467 40.2987 21.6667 40.2987H58.3333C59.2533 40.2987 60 41.0454 60 41.9654C60 42.8854 59.2533 43.6321 58.3333 43.6321Z" fill="white"/>
<path d="M58.3333 30.8542H21.6667C20.7467 30.8542 20 30.1075 20 29.1875C20 28.2675 20.7467 27.5208 21.6667 27.5208H58.3333C59.2533 27.5208 60 28.2675 60 29.1875C60 30.1075 59.2533 30.8542 58.3333 30.8542Z" fill="white"/>
<path d="M58.3333 56.4096H21.6667C20.7467 56.4096 20 55.6629 20 54.7429C20 53.8229 20.7467 53.0763 21.6667 53.0763H58.3333C59.2533 53.0763 60 53.8229 60 54.7429C60 55.6629 59.2533 56.4096 58.3333 56.4096Z" fill="white"/>
</svg>
