<svg width="50" height="50" viewBox="0 0 50 50" fill="none" xmlns="http://www.w3.org/2000/svg">
<path d="M25 50C38.8071 50 50 38.8071 50 25C50 11.1929 38.8071 0 25 0C11.1929 0 0 11.1929 0 25C0 38.8071 11.1929 50 25 50Z" fill="#828DF3"/>
<path d="M39.9372 27.0116V37.3186H33.9615V27.7023C33.9615 25.2878 33.0988 23.6389 30.9351 23.6389C29.284 23.6389 28.3031 24.749 27.87 25.8239C27.7126 26.2081 27.6721 26.7415 27.6721 27.2803V37.3181H21.6959C21.6959 37.3181 21.7762 21.0314 21.6959 19.3455H27.6725V21.8924C27.6605 21.9125 27.6436 21.9321 27.6329 21.9512H27.6725V21.8924C28.4667 20.6705 29.883 18.9235 33.0582 18.9235C36.9897 18.9235 39.9372 21.4922 39.9372 27.0116ZM15.4444 10.6821C13.4002 10.6821 12.0628 12.024 12.0628 13.787C12.0628 15.5125 13.3614 16.8931 15.366 16.8931H15.4047C17.489 16.8931 18.785 15.5125 18.785 13.787C18.7453 12.024 17.489 10.6821 15.4444 10.6821ZM12.418 37.3186H18.3919V19.3455H12.418V37.3186Z" fill="white"/>
</svg>
