<svg width="100" height="100" viewBox="0 0 100 100" fill="none" xmlns="http://www.w3.org/2000/svg">
<path d="M96.8582 37.032C93.1541 33.9238 87.6115 34.4102 84.509 38.1074L76.1701 47.9752V19.3611C76.1701 16.9629 75.1729 14.6404 73.4342 12.9891L62.3057 2.41777C60.6652 0.859375 58.5156 0.000976562 56.2529 0.000976562H8.78887C3.94277 0.000976562 0 3.94375 0 8.78984V91.21C0 96.0561 3.94277 99.9988 8.78887 99.9988H67.3814C72.2275 99.9988 76.1703 96.0561 76.1703 91.21V75.202C76.5303 74.7756 97.8742 49.4936 97.9414 49.4141C101.064 45.693 100.58 40.1547 96.8582 37.032ZM58.5926 6.97168C70.3139 18.1061 69.4814 17.2922 69.7012 17.5789H58.5926V6.97168ZM70.3109 91.21C70.3109 92.8254 68.9967 94.1396 67.3813 94.1396H8.78887C7.17344 94.1396 5.85918 92.8254 5.85918 91.21V8.78984C5.85918 7.17441 7.17344 5.86016 8.78887 5.86016H52.7332V20.5082C52.7332 22.1262 54.0449 23.4379 55.6629 23.4379H70.3109V54.9084C69.0525 56.3975 58.948 68.3543 57.8559 69.6467C56.9834 70.6865 56.3555 71.934 56.0402 73.2541L53.3176 84.6518C53.06 85.7311 53.434 86.8635 54.284 87.5768C55.1348 88.2908 56.315 88.4613 57.3322 88.0205L68.0842 83.36C68.8914 83.01 69.6443 82.5346 70.3109 81.9633V91.21V91.21ZM63.3428 72.2318L67.8307 75.9975L66.8326 77.1795C66.5422 77.526 66.1689 77.8043 65.7539 77.9842L60.3781 80.3145L61.7396 74.6156C61.8447 74.1756 62.0539 73.7598 62.3381 73.4211L63.3428 72.2318ZM71.6102 71.5203L67.1244 67.7564C67.5795 67.218 82.2998 49.7988 83.3178 48.5943L87.7941 52.3504L71.6102 71.5203ZM93.4588 45.641L91.5742 47.8734L87.1 44.1191L88.991 41.8814C90.024 40.6504 91.8641 40.4898 93.092 41.5203C94.3443 42.5709 94.4824 44.4211 93.4588 45.641Z" fill="#828DF3"/>
<path d="M43.9443 17.5789H14.6481C13.0301 17.5789 11.7184 18.8906 11.7184 20.5085C11.7184 22.1265 13.0301 23.4382 14.6481 23.4382H43.9443C45.5623 23.4382 46.874 22.1265 46.874 20.5085C46.874 18.8906 45.5623 17.5789 43.9443 17.5789Z" fill="#828DF3"/>
<path d="M61.5221 35.3518H14.6481C13.0301 35.3518 11.7184 36.6635 11.7184 38.2815C11.7184 39.8995 13.0301 41.2112 14.6481 41.2112H61.5221C63.14 41.2112 64.4518 39.8995 64.4518 38.2815C64.4518 36.6635 63.14 35.3518 61.5221 35.3518Z" fill="#828DF3"/>
<path d="M61.5221 52.9297H14.6481C13.0301 52.9297 11.7184 54.2414 11.7184 55.8594C11.7184 57.4773 13.0301 58.7891 14.6481 58.7891H61.5221C63.14 58.7891 64.4518 57.4773 64.4518 55.8594C64.4518 54.2412 63.14 52.9297 61.5221 52.9297Z" fill="#828DF3"/>
<path d="M43.9443 70.5073H14.6481C13.0301 70.5073 11.7184 71.819 11.7184 73.437C11.7184 75.055 13.0301 76.3667 14.6481 76.3667H43.9443C45.5623 76.3667 46.874 75.055 46.874 73.437C46.874 71.819 45.5623 70.5073 43.9443 70.5073Z" fill="#828DF3"/>
</svg>
