<svg width="100" height="100" viewBox="0 0 100 100" fill="none" xmlns="http://www.w3.org/2000/svg">
<path d="M99.5415 17.2064L100 15.9405C97.6697 13.959 98.6755 11.2836 98.6755 11.2836L91.6198 7.07339L90.9252 7.86008C88.9868 6.73499 86.7195 5.17485 84.2957 3.00426C77.2803 -3.27877 67.5128 0.419741 60.9973 12.9139C59.3936 15.9907 56.1439 21.9639 52.1606 29.2098L49.7631 27.952L46.0233 34.9161L48.3467 36.1366C47.4561 37.7509 46.548 39.3956 45.6261 41.0626L42.9865 39.677L39.2466 46.6415L41.795 47.9789C40.7345 49.8918 39.6736 51.8046 38.6213 53.6993L35.8975 52.2698L32.1576 59.2334L34.7839 60.6118C27.1587 74.3194 20.9167 85.4975 20.9167 85.4975C20.9167 85.4975 19.6637 88.4816 17.7841 87.5915C15.9057 86.7013 14.9044 85.9163 17.7841 82.285C20.665 78.6569 30.0179 68.0474 29.8508 46.4122C29.8508 46.4122 29.5182 43.8996 34.8614 39.7124L1.14967 43.2031C1.14967 43.2031 5.43584 44.8561 7.9708 47.1107C10.991 49.7955 14.8187 59.5347 6.1339 71.3977C-2.55024 83.2633 -1.88175 90.5227 7.30382 96.1035C16.4898 101.689 29.5165 102.107 34.1927 91.7786C38.8693 81.448 70.6004 10.4011 70.6004 10.4011C70.6004 10.4011 73.1053 2.16466 83.1267 7.3305L88.7828 10.2856L87.987 11.1886L99.5415 17.2064Z" fill="#828DF3"/>
</svg>
