<svg width="100" height="101" viewBox="0 0 100 101" fill="none" xmlns="http://www.w3.org/2000/svg">
<path d="M70.6794 65.673L65.8749 55.741C70.9171 63.7766 80.2469 64.1759 85.6938 56.7471C90.6673 49.964 90.4133 39.3116 85.1243 32.9316C79.838 26.5547 71.5309 26.8781 66.5565 33.6624C62.735 38.8745 62.0419 46.2853 64.1934 52.2649L52.5716 28.2401L69.818 21.8569C75.1741 19.8746 77.7053 12.0111 74.9841 5.75665C73.0081 1.21542 68.9069 -0.949487 65.0116 0.492444L38.9015 10.1561C32.1317 12.6619 29.1001 22.7555 32.8173 30.4401L40.7091 46.754L15 59.2818C31.651 59.7726 55.5505 64.7619 70.6794 65.673Z" fill="#828DF3"/>
<path d="M3.73115 78.4174C41.5821 64.6168 55.8772 92.4775 97.8092 78.4387C99.3749 77.9146 100.313 75.8617 99.904 73.8538C99.4954 71.846 97.8948 70.6433 96.3294 71.1671C56.0434 84.6556 41.7286 56.7503 2.129 71.1884C0.572752 71.7558 -0.330373 73.8341 0.11201 75.8304C0.554588 77.8269 2.17549 78.9848 3.73115 78.4174V78.4174Z" fill="#828DF3"/>
<path d="M96.3294 88.7026C55.9694 102.216 41.8071 74.2568 2.129 88.7239C0.572752 89.2913 -0.330373 91.3695 0.11201 93.3659C0.554393 95.3622 2.17529 96.5205 3.73115 95.9529C41.5821 82.1523 55.8772 110.013 97.8092 95.9742C99.3749 95.4501 100.313 93.3972 99.904 91.3893C99.4954 89.3813 97.8948 88.1786 96.3294 88.7026V88.7026Z" fill="#828DF3"/>
</svg>
